<?xml version="1.0" encoding="UTF-8"?>
<svg xmlns="http://www.w3.org/2000/svg" width="1400" height="980" viewBox="0 0 1400 980" role="img" aria-labelledby="title desc">
  <title id="title">Research Lab File Statistics</title>
  <desc id="desc">Overview of file counts, storage use by extension and top-level folder, and largest files.</desc>
  <defs>
    <linearGradient id="bg" x1="0" y1="0" x2="1" y2="1">
      <stop offset="0%" stop-color="#09111f" />
      <stop offset="100%" stop-color="#13233c" />
    </linearGradient>
    <linearGradient id="accentA" x1="0" y1="0" x2="1" y2="0">
      <stop offset="0%" stop-color="#f59e0b" />
      <stop offset="100%" stop-color="#ef4444" />
    </linearGradient>
    <linearGradient id="accentB" x1="0" y1="0" x2="1" y2="0">
      <stop offset="0%" stop-color="#38bdf8" />
      <stop offset="100%" stop-color="#22c55e" />
    </linearGradient>
  </defs>

  <rect width="1400" height="980" fill="url(#bg)" />
  <circle cx="1200" cy="120" r="220" fill="#1d3557" opacity="0.22" />
  <circle cx="180" cy="860" r="260" fill="#ef4444" opacity="0.08" />

  <text x="80" y="90" class="eyebrow">WORKSPACE STORAGE SNAPSHOT</text>
  <text x="80" y="140" class="headline">Research Lab File Statistics</text>
  <text x="80" y="176" class="subhead">Generated 2026-04-23 22:11:52 from C:\Users\Surface\OneDrive\SIRENSSD\Research Lab</text>

  <g transform="translate(80, 230)">
    <rect width="270" height="120" rx="22" fill="#111a2b" />
    <text x="28" y="42" class="card-label">Files</text>
    <text x="28" y="88" class="card-value">458</text>
  </g>
  <g transform="translate(380, 230)">
    <rect width="270" height="120" rx="22" fill="#111a2b" />
    <text x="28" y="42" class="card-label">Directories</text>
    <text x="28" y="88" class="card-value">30</text>
  </g>
  <g transform="translate(680, 230)">
    <rect width="270" height="120" rx="22" fill="#111a2b" />
    <text x="28" y="42" class="card-label">Total Size</text>
    <text x="28" y="88" class="card-value">110.81 MiB</text>
  </g>
  <g transform="translate(980, 230)">
    <rect width="270" height="120" rx="22" fill="#111a2b" />
    <text x="28" y="42" class="card-label">Average File</text>
    <text x="28" y="88" class="card-value">247.74 KiB</text>
  </g>

  
    <g>
      <text x="80" y="420" class="section-title">Top Extensions By File Count</text>
      <text x="80" y="444" class="section-subtitle">Dominant file types in the workspace.</text>
      
        <text x="80" y="470" class="row-label">.txt</text>
        <rect x="80" y="480" width="520" height="18" rx="10" fill="#172033" />
        <rect x="80" y="480" width="520" height="18" rx="10" fill="url(#accentA)" />
        <text x="600" y="492" text-anchor="end" class="row-value">300 files</text>
      
        <text x="80" y="516" class="row-label">.html</text>
        <rect x="80" y="526" width="520" height="18" rx="10" fill="#172033" />
        <rect x="80" y="526" width="199.33333333333334" height="18" rx="10" fill="url(#accentA)" />
        <text x="600" y="538" text-anchor="end" class="row-value">115 files</text>
      
        <text x="80" y="562" class="row-label">.zip</text>
        <rect x="80" y="572" width="520" height="18" rx="10" fill="#172033" />
        <rect x="80" y="572" width="45.06666666666667" height="18" rx="10" fill="url(#accentA)" />
        <text x="600" y="584" text-anchor="end" class="row-value">26 files</text>
      
        <text x="80" y="608" class="row-label">.jpg</text>
        <rect x="80" y="618" width="520" height="18" rx="10" fill="#172033" />
        <rect x="80" y="618" width="6.933333333333334" height="18" rx="10" fill="url(#accentA)" />
        <text x="600" y="630" text-anchor="end" class="row-value">4 files</text>
      
        <text x="80" y="654" class="row-label">.ps1</text>
        <rect x="80" y="664" width="520" height="18" rx="10" fill="#172033" />
        <rect x="80" y="664" width="6" height="18" rx="10" fill="url(#accentA)" />
        <text x="600" y="676" text-anchor="end" class="row-value">3 files</text>
      
        <text x="80" y="700" class="row-label">.png</text>
        <rect x="80" y="710" width="520" height="18" rx="10" fill="#172033" />
        <rect x="80" y="710" width="6" height="18" rx="10" fill="url(#accentA)" />
        <text x="600" y="722" text-anchor="end" class="row-value">2 files</text>
      
    </g>
  

  
    <g>
      <text x="820" y="420" class="section-title">Top Folders By Size</text>
      <text x="820" y="444" class="section-subtitle">Storage concentration by top-level folder.</text>
      
        <text x="820" y="470" class="row-label">Records and logging</text>
        <rect x="820" y="480" width="520" height="18" rx="10" fill="#172033" />
        <rect x="820" y="480" width="520" height="18" rx="10" fill="url(#accentB)" />
        <text x="1340" y="492" text-anchor="end" class="row-value">104.13 MiB</text>
      
        <text x="820" y="516" class="row-label">COMPLEX</text>
        <rect x="820" y="526" width="520" height="18" rx="10" fill="#172033" />
        <rect x="820" y="526" width="15.530586766541822" height="18" rx="10" fill="url(#accentB)" />
        <text x="1340" y="538" text-anchor="end" class="row-value">3.11 MiB</text>
      
        <text x="820" y="562" class="row-label">[root]</text>
        <rect x="820" y="572" width="520" height="18" rx="10" fill="#172033" />
        <rect x="820" y="572" width="13.932584269662922" height="18" rx="10" fill="url(#accentB)" />
        <text x="1340" y="584" text-anchor="end" class="row-value">2.79 MiB</text>
      
        <text x="820" y="608" class="row-label">Files</text>
        <rect x="820" y="618" width="520" height="18" rx="10" fill="#172033" />
        <rect x="820" y="618" width="6" height="18" rx="10" fill="url(#accentB)" />
        <text x="1340" y="630" text-anchor="end" class="row-value">0.26 MiB</text>
      
        <text x="820" y="654" class="row-label">photos</text>
        <rect x="820" y="664" width="520" height="18" rx="10" fill="#172033" />
        <rect x="820" y="664" width="6" height="18" rx="10" fill="url(#accentB)" />
        <text x="1340" y="676" text-anchor="end" class="row-value">0.22 MiB</text>
      
        <text x="820" y="700" class="row-label">5RAGONC1RCUS_INFERNO</text>
        <rect x="820" y="710" width="520" height="18" rx="10" fill="#172033" />
        <rect x="820" y="710" width="6" height="18" rx="10" fill="url(#accentB)" />
        <text x="1340" y="722" text-anchor="end" class="row-value">0.19 MiB</text>
      
    </g>
  

  <text x="820" y="720" class="section-title">Largest Files</text>
  <text x="820" y="744" class="section-subtitle">Top files by size across the workspace.</text>
  
        <text x="820" y="760" class="small-label">1. Records and logging\Session_2025-11-14_03-39-36.txt</text>
        <text x="1320" y="760" text-anchor="end" class="small-value">18.92 MiB</text>
      
        <text x="820" y="794" class="small-label">2. Records and logging\Session_2025-07-09_20-43-42.txt</text>
        <text x="1320" y="794" text-anchor="end" class="small-value">14.54 MiB</text>
      
        <text x="820" y="828" class="small-label">3. Records and logging\Session_2025-11-18_21-21-43.txt</text>
        <text x="1320" y="828" text-anchor="end" class="small-value">12.19 MiB</text>
      
        <text x="820" y="862" class="small-label">4. Records and logging\Session_2025-11-18_21-26-32.txt</text>
        <text x="1320" y="862" text-anchor="end" class="small-value">12.15 MiB</text>
      
        <text x="820" y="896" class="small-label">5. Records and logging\Session_2025-11-19_23-26-46.txt</text>
        <text x="1320" y="896" text-anchor="end" class="small-value">8.49 MiB</text>
      

  <style>
    text {
      font-family: "Segoe UI", "Trebuchet MS", sans-serif;
      fill: #eef4ff;
    }
    .eyebrow {
      font-size: 16px;
      letter-spacing: 0.24em;
      font-weight: 700;
      fill: #7dd3fc;
    }
    .headline {
      font-size: 42px;
      font-weight: 700;
    }
    .subhead {
      font-size: 18px;
      fill: #b7c6df;
    }
    .card-label {
      font-size: 16px;
      fill: #9fb0cb;
    }
    .card-value {
      font-size: 32px;
      font-weight: 700;
    }
    .section-title {
      font-size: 26px;
      font-weight: 700;
    }
    .section-subtitle {
      font-size: 15px;
      fill: #9fb0cb;
    }
    .row-label {
      font-size: 16px;
    }
    .row-value {
      font-size: 15px;
      fill: #d7e4f7;
    }
    .small-label {
      font-size: 16px;
      fill: #dce8f8;
    }
    .small-value {
      font-size: 16px;
      font-weight: 700;
    }
  </style>
</svg>
